# xmcd
#
# Track frame offsets:
#	150
#	13299
#	25241
#	34509
#	43299
#	50985
#	64891
#	74881
#	84580
#	98094
#	125924
#	139940
#	152659
#	161543
#	173640
#	198648
#	209159
#	221925
#	234626
#	244294
#	259962
#	271647
#
# Disc length: 3766 seconds
#
# Revision: 4
# Processed by: cddbd v1.5.2PL0 Copyright (c) Steve Scherf et al.
# Submitted via: EZCDAudioConverter 2.1.7.1
#
DISCID=620eb416
DTITLE=V/A - Saturday Night Fish Fry
DYEAR=2001
DGENRE=
TTITLE0=Roger and The Gypsies - Pass The Hatchet
TTITLE1=Betty Harris - Mean Man
TTITLE2=Dixie Cups - Iko Iko
TTITLE3=David Batiste - Funky Soul
TTITLE4=Eldridge Holmes - Where Is Love
TTITLE5=Lee Dorsey - Give It Up
TTITLE6=Salt - Hung Up
TTITLE7=Huey Piano Smith - Little Liza Jane
TTITLE8=Eddie Bo - The Thang (Part 2)
TTITLE9=Wild Magnolias - Soul, Soul, Soul
TTITLE10=Bobby and The Heavyweights - Soul Train
TTITLE11=Betty Harris - Break In The Road
TTITLE12=Eldridge Holmes - Hump Back
TTITLE13=The Meters - Message From The Meters
TTITLE14=Dr. John - Gris Gris Gumbo Ya Ya
TTITLE15=Irma Thomas - Don't Mess With My Man
TTITLE16=The Gaturs - Cold Bear
TTITLE17=Oliver Morgan - Roll Call
TTITLE18=Inell Young - The Next Ball Game
TTITLE19=Lee Dorsey - Yes We Can Can
TTITLE20=Irma Thomas - Ruler Of My Heart
TTITLE21=Smokey Johnson - I Can't Help It
EXTD=
EXTT0=
EXTT1=
EXTT2=
EXTT3=
EXTT4=
EXTT5=
EXTT6=
EXTT7=
EXTT8=
EXTT9=
EXTT10=
EXTT11=
EXTT12=
EXTT13=
EXTT14=
EXTT15=
EXTT16=
EXTT17=
EXTT18=
EXTT19=
EXTT20=
EXTT21=
PLAYORDER=
